HIERARCHY
ROOT reference
{
  OFFSET 0 0 0
  CHANNELS 6 Xposition Yposition Zposition Zrotation Xrotation Yrotation
  JOINT Hips
  {
    OFFSET 370.543 87.5 183.721
    CHANNELS 3 Zrotation Xrotation Yrotation
    JOINT RightUpLeg
    {
      OFFSET -9.29072 -1.53718 -0.00769521
      CHANNELS 3 Zrotation Xrotation Yrotation
      JOINT RightLeg
      {
        OFFSET 0.000649198 -41.8926 0.0287464
        CHANNELS 3 Zrotation Xrotation Yrotation
        JOINT RightFoot
        {
          OFFSET -0.131981 -42.8927 0.241786
          CHANNELS 3 Zrotation Xrotation Yrotation
          End Site
          {
            OFFSET 0 -7.69 17.5
          }
        }
      }
    }
    JOINT LeftUpLeg
    {
      OFFSET 9.29816 -1.6623 -0.0330144
      CHANNELS 3 Zrotation Xrotation Yrotation
      JOINT LeftLeg
      {
        OFFSET 0.0555409 -41.8801 -0.0492089
        CHANNELS 3 Zrotation Xrotation Yrotation
        JOINT LeftFoot
        {
          OFFSET 0.737583 -41.1094 -0.206555
          CHANNELS 3 Zrotation Xrotation Yrotation
          End Site
          {
            OFFSET 0 -7.69 17.5
          }
        }
      }
    }
    JOINT Spine
    {
      OFFSET 0.0742767 14.2946 0.0485675
      CHANNELS 3 Zrotation Xrotation Yrotation
      JOINT Spine1
      {
        OFFSET 0.0332084 9.70841 0.0159593
        CHANNELS 3 Zrotation Xrotation Yrotation
        JOINT Spine2
        {
          OFFSET 0.0388468 10.1231 0.00288192
          CHANNELS 3 Zrotation Xrotation Yrotation
          JOINT Spine3
          {
            OFFSET 0.0300771 9.71993 0.00776905
            CHANNELS 3 Zrotation Xrotation Yrotation
            JOINT Neck
            {
              OFFSET 0.058413 10.382 0.0516165
              CHANNELS 3 Zrotation Xrotation Yrotation
              JOINT Head
              {
                OFFSET 0.0298281 9.47849 0.0268718
                CHANNELS 3 Zrotation Xrotation Yrotation
                End Site
                {
                  OFFSET 0 15.95 0
                }
              }
            }
            JOINT RightShoulder
            {
              OFFSET -3.15612 6.91385 0.0353801
              CHANNELS 3 Zrotation Xrotation Yrotation
              JOINT RightArm
              {
                OFFSET -12.7781 -0.0057607 0.0332486
                CHANNELS 3 Zrotation Xrotation Yrotation
                JOINT RightForeArm
                {
                  OFFSET -26.4999 -0.0425897 0.0409183
                  CHANNELS 3 Zrotation Xrotation Yrotation
                  JOINT RightHand
                  {
                    OFFSET -25.993 -0.0294641 0.00108206
                    CHANNELS 3 Zrotation Xrotation Yrotation
                    JOINT RightHandThumb1
                    {
                      OFFSET -2.48905 0.190105 3.12053
                      CHANNELS 3 Zrotation Xrotation Yrotation
                      JOINT RightHandThumb2
                      {
                        OFFSET -3.68274 0 0
                        CHANNELS 3 Zrotation Xrotation Yrotation
                        JOINT RightHandThumb3
                        {
                          OFFSET -2.55832 0 0
                          CHANNELS 3 Zrotation Xrotation Yrotation
                          End Site
                          {
                            OFFSET -2.194 0 0
                          }
                        }
                      }
                    }
                    JOINT RightInHandIndex
                    {
                      OFFSET -3.22368 0.508421 1.97842
                      CHANNELS 3 Zrotation Xrotation Yrotation
                      JOINT RightHandIndex1
                      {
                        OFFSET -5.21684 -0.091368 0.999158
                        CHANNELS 3 Zrotation Xrotation Yrotation
                        JOINT RightHandIndex2
                        {
                          OFFSET -3.61937 0 0
                          CHANNELS 3 Zrotation Xrotation Yrotation
                          JOINT RightHandIndex3
                          {
                            OFFSET -2.0521 0 0
                            CHANNELS 3 Zrotation Xrotation Yrotation
                            End Site
                            {
                              OFFSET -1.805 0 0
                            }
                          }
                        }
                      }
                    }
                    JOINT RightInHandMiddle
                    {
                      OFFSET -3.38211 0.517263 0.756737
                      CHANNELS 3 Zrotation Xrotation Yrotation
                      JOINT RightHandMiddle1
                      {
                        OFFSET -5.17411 -0.084 0.313895
                        CHANNELS 3 Zrotation Xrotation Yrotation
                        JOINT RightHandMiddle2
                        {
                          OFFSET -3.94947 0 0
                          CHANNELS 3 Zrotation Xrotation Yrotation
                          JOINT RightHandMiddle3
                          {
                            OFFSET -2.47579 0 0
                            CHANNELS 3 Zrotation Xrotation Yrotation
                            End Site
                            {
                              OFFSET -1.975 0 0
                            }
                          }
                        }
                      }
                    }
                    JOINT RightInHandRing
                    {
                      OFFSET -3.36516 0.537895 -0.128947
                      CHANNELS 3 Zrotation Xrotation Yrotation
                      JOINT RightHandRing1
                      {
                        OFFSET -4.63474 -0.022105 -0.478947
                        CHANNELS 3 Zrotation Xrotation Yrotation
                        JOINT RightHandRing2
                        {
                          OFFSET -3.44238 0 0
                          CHANNELS 3 Zrotation Xrotation Yrotation
                          JOINT RightHandRing3
                          {
                            OFFSET -2.3881 0 0
                            CHANNELS 3 Zrotation Xrotation Yrotation
                            End Site
                            {
                              OFFSET -1.857 0 0
                            }
                          }
                        }
                      }
                    }
                    JOINT RightInHandPinky
                    {
                      OFFSET -3.16105 0.469368 -1.20179
                      CHANNELS 3 Zrotation Xrotation Yrotation
                      JOINT RightHandPinky1
                      {
                        OFFSET -4.14105 -0.022105 -1.09053
                        CHANNELS 3 Zrotation Xrotation Yrotation
                        JOINT RightHandPinky2
                        {
                          OFFSET -2.75653 0 0
                          CHANNELS 3 Zrotation Xrotation Yrotation
                          JOINT RightHandPinky3
                          {
                            OFFSET -1.74189 0 0
                            CHANNELS 3 Zrotation Xrotation Yrotation
                            End Site
                            {
                              OFFSET -1.645 0 0
                            }
                          }
                        }
                      }
                    }
                  }
                }
              }
            }
            JOINT LeftShoulder
            {
              OFFSET 3.24463 6.9123 -0.0189685
              CHANNELS 3 Zrotation Xrotation Yrotation
              JOINT LeftArm
              {
                OFFSET 12.8793 -0.0485389 -0.0634723
                CHANNELS 3 Zrotation Xrotation Yrotation
                JOINT LeftForeArm
                {
                  OFFSET 26.4894 0.00252616 -0.136149
                  CHANNELS 3 Zrotation Xrotation Yrotation
                  JOINT LeftHand
                  {
                    OFFSET 26.005 0.0292639 -0.0166184
                    CHANNELS 3 Zrotation Xrotation Yrotation
                    JOINT LeftHandThumb1
                    {
                      OFFSET 2.48905 0.190105 3.12053
                      CHANNELS 3 Zrotation Xrotation Yrotation
                      JOINT LeftHandThumb2
                      {
                        OFFSET 3.68274 0 0
                        CHANNELS 3 Zrotation Xrotation Yrotation
                        JOINT LeftHandThumb3
                        {
                          OFFSET 2.55832 0 0
                          CHANNELS 3 Zrotation Xrotation Yrotation
                          End Site
                          {
                            OFFSET 2.194 0 0
                          }
                        }
                      }
                    }
                    JOINT LeftInHandIndex
                    {
                      OFFSET 3.22368 0.508421 1.97842
                      CHANNELS 3 Zrotation Xrotation Yrotation
                      JOINT LeftHandIndex1
                      {
                        OFFSET 5.21684 -0.091368 0.999158
                        CHANNELS 3 Zrotation Xrotation Yrotation
                        JOINT LeftHandIndex2
                        {
                          OFFSET 3.61937 0 0
                          CHANNELS 3 Zrotation Xrotation Yrotation
                          JOINT LeftHandIndex3
                          {
                            OFFSET 2.0521 0 0
                            CHANNELS 3 Zrotation Xrotation Yrotation
                            End Site
                            {
                              OFFSET 1.805 0 0
                            }
                          }
                        }
                      }
                    }
                    JOINT LeftInHandMiddle
                    {
                      OFFSET 3.38211 0.517263 0.756737
                      CHANNELS 3 Zrotation Xrotation Yrotation
                      JOINT LeftHandMiddle1
                      {
                        OFFSET 5.17411 -0.084 0.313895
                        CHANNELS 3 Zrotation Xrotation Yrotation
                        JOINT LeftHandMiddle2
                        {
                          OFFSET 3.94947 0 0
                          CHANNELS 3 Zrotation Xrotation Yrotation
                          JOINT LeftHandMiddle3
                          {
                            OFFSET 2.47579 0 0
                            CHANNELS 3 Zrotation Xrotation Yrotation
                            End Site
                            {
                              OFFSET 1.975 0 0
                            }
                          }
                        }
                      }
                    }
                    JOINT LeftInHandRing
                    {
                      OFFSET 3.36516 0.537895 -0.128947
                      CHANNELS 3 Zrotation Xrotation Yrotation
                      JOINT LeftHandRing1
                      {
                        OFFSET 4.63474 -0.022105 -0.478947
                        CHANNELS 3 Zrotation Xrotation Yrotation
                        JOINT LeftHandRing2
                        {
                          OFFSET 3.44238 0 0
                          CHANNELS 3 Zrotation Xrotation Yrotation
                          JOINT LeftHandRing3
                          {
                            OFFSET 2.3881 0 0
                            CHANNELS 3 Zrotation Xrotation Yrotation
                            End Site
                            {
                              OFFSET 1.857 0 0
                            }
                          }
                        }
                      }
                    }
                    JOINT LeftInHandPinky
                    {
                      OFFSET 3.16105 0.469368 -1.20179
                      CHANNELS 3 Zrotation Xrotation Yrotation
                      JOINT LeftHandPinky1
                      {
                        OFFSET 4.14105 -0.022105 -1.09053
                        CHANNELS 3 Zrotation Xrotation Yrotation
                        JOINT LeftHandPinky2
                        {
                          OFFSET 2.75653 0 0
                          CHANNELS 3 Zrotation Xrotation Yrotation
                          JOINT LeftHandPinky3
                          {
                            OFFSET 1.74189 0 0
                            CHANNELS 3 Zrotation Xrotation Yrotation
                            End Site
                            {
                              OFFSET 1.645 0 0
                            }
                          }
                        }
                      }
                    }
                  }
                }
              }
            }
          }
        }
      }
    }
  }
}
MOTION
Frames: 2
Frame Time: 0.00833333
9.000000000000000000e+02 0.000000000000000000e+00 0.000000000000000000e+00 0.000000000000000000e+00 0.000000000000000000e+00 0.000000000000000000e+00 -6.123755920778567230e+00 1.328790307662205405e+00 4.878861836371588367e+01 -1.978680030106246690e+01 1.354943911162937731e+01 -1.817148217300337976e+01 1.890525691777264594e+00 -9.314370637333775349e-01 -4.327806321401606482e+00 -5.453580385048162782e+00 1.195542801140272671e+00 -1.515574747910659070e+01 -1.566714642910327093e+01 -5.397512567875136114e+00 -1.511099316307007534e+01 1.452292683018842467e+01 -6.554373391637211554e+00 -1.608305556981285633e+01 -8.471355470198830062e+00 5.304288205824814639e+00 -2.368168591498706377e+01 1.543002744469350374e+00 4.513049738780017250e+00 1.301646819031259561e+01 4.908294008806483588e-01 8.391247457915540497e-01 3.355302324425818217e+00 7.912989505658937217e-01 1.181056667857408593e+00 5.356352277250526761e+00 4.741715350243571603e-01 2.128824805152001731e-01 -1.969024063929839530e+00 6.768004252737764848e-01 2.331887317877998633e+00 -2.233556271984002350e+01 8.154207859077851950e+00 -1.202446305392324666e+00 -2.444303212169139883e+01 -4.411602665428079884e-01 -6.037361529086206602e+00 9.661705079233705362e+00 2.429726681660826948e+00 2.858768353878097557e+01 3.045635620688449663e+01 -2.556574417638791630e+01 -1.140385517182962971e+01 -4.039048107380708785e+01 1.871176718560789265e+00 1.945830640120503885e+00 -4.728643551334277717e+00 0.000000000000000000e+00 0.000000000000000000e+00 0.000000000000000000e+00 5.176602297407343282e-16 -5.106630680067559023e-16 0.000000000000000000e+00 5.638534045645582071e-16 4.577248048680756288e-16 0.000000000000000000e+00 -2.625390472599306902e-16 1.425510666878496964e-15 4.268293653579217644e-17 0.000000000000000000e+00 0.000000000000000000e+00 0.000000000000000000e+00 0.000000000000000000e+00 -5.695209816771042369e-16 1.762852697428061553e-15 0.000000000000000000e+00 -9.520903023499511617e-16 -4.658006097379236287e-16 -2.625390472599306902e-16 1.425510666878496964e-15 4.268293653579217644e-17 0.000000000000000000e+00 -1.272791025674535961e-15 1.923631640303257224e-15 0.000000000000000000e+00 -9.774287239766129384e-16 1.738795689764696952e-15 0.000000000000000000e+00 -8.990634222542258831e-16 -2.153130607683841502e-15 -2.625390472599306902e-16 1.425510666878496964e-15 4.268293653579217644e-17 0.000000000000000000e+00 0.000000000000000000e+00 0.000000000000000000e+00 0.000000000000000000e+00 -1.329030441476263000e-15 6.725579067486118702e-16 0.000000000000000000e+00 -1.099736378601533084e-15 1.629999791184098263e-15 -2.625390472599306902e-16 1.425510666878496964e-15 4.268293653579217644e-17 0.000000000000000000e+00 0.000000000000000000e+00 0.000000000000000000e+00 0.000000000000000000e+00 -5.375645939972770923e-16 3.128454688040885761e-15 0.000000000000000000e+00 8.684327960492694933e-16 -3.121498145826121051e-16 -1.749865736759132595e+00 4.754776310422069052e+00 1.260669823342271023e+01 -1.161790739906967751e+01 -9.946314723264286783e+00 1.706143860688274927e+01 -2.116380164851505796e+01 -2.561500269394870699e+01 -1.991568396551998532e+01 2.506051248334445258e+00 1.374449439025095421e+00 3.185984196159648008e+00 0.000000000000000000e+00 0.000000000000000000e+00 0.000000000000000000e+00 -3.513943703937155263e-16 1.072228520542199031e-15 0.000000000000000000e+00 7.392996297542020553e-16 -1.698841577024246392e-15 0.000000000000000000e+00 1.725439502970276944e-16 -1.444819514349413164e-15 -3.096837033005789006e-16 0.000000000000000000e+00 0.000000000000000000e+00 0.000000000000000000e+00 0.000000000000000000e+00 -3.930936247855390731e-16 -6.060638763749734384e-16 0.000000000000000000e+00 -5.755973501077139365e-16 5.704648855143436828e-17 1.725439502970276944e-16 -1.444819514349413164e-15 -3.096837033005789006e-16 0.000000000000000000e+00 2.095318390708394520e-15 -1.065591805735131289e-15 0.000000000000000000e+00 -8.925265495300538254e-16 1.301843303706714872e-15 0.000000000000000000e+00 9.238910254554389074e-16 -3.389201192823745865e-16 1.725439502970276944e-16 -1.444819514349413164e-15 -3.096837033005789006e-16 0.000000000000000000e+00 0.000000000000000000e+00 0.000000000000000000e+00 0.000000000000000000e+00 2.336843912942853999e-16 -6.284425536614469572e-16 0.000000000000000000e+00 4.744691918168321275e-17 9.213694229705375109e-16 1.725439502970276944e-16 -1.444819514349413164e-15 -3.096837033005789006e-16 0.000000000000000000e+00 0.000000000000000000e+00 0.000000000000000000e+00 0.000000000000000000e+00 -9.454184971719158672e-16 5.629541605828697465e-16 0.000000000000000000e+00 1.942489349650932702e-16 4.290666297749137301e-16
9.000000000000000000e+02 0.000000000000000000e+00 0.000000000000000000e+00 0.000000000000000000e+00 0.000000000000000000e+00 0.000000000000000000e+00 -6.164459616043212797e+00 1.222146732229820065e+00 4.884960953373648351e+01 -1.963040420827962862e+01 1.371623115459492936e+01 -1.799064410138021586e+01 1.867309839523735526e+00 -9.959148529543501160e-01 -4.294037281069053691e+00 -5.534847510895720468e+00 1.360311231401966525e+00 -1.503648940685583923e+01 -1.567502166422010745e+01 -5.210998861692902828e+00 -1.505874656807046819e+01 1.444221462247655907e+01 -6.597409803699290975e+00 -1.602640157903048390e+01 -8.494527067738699699e+00 5.249573393166589774e+00 -2.378709684019730020e+01 1.521700718023879073e+00 4.424046713537247655e+00 1.307757672018849426e+01 4.839905813999446083e-01 8.138577484086644276e-01 3.368237464888098387e+00 7.808021944005560933e-01 1.140234773485968578e+00 5.372639532165934817e+00 4.731802828025348240e-01 2.062339008672325613e-01 -1.965786873456963457e+00 6.819828742644440389e-01 2.301059402524327169e+00 -2.238906391142998586e+01 8.139775503637615373e+00 -1.224512353874125825e+00 -2.433884761186819290e+01 -4.254000780700596951e-01 -5.960607603818702138e+00 9.669884579312602924e+00 2.116399067335198225e+00 2.838294997959475197e+01 3.053710147087168281e+01 -2.540913046407959186e+01 -1.125242786747684320e+01 -3.991027009302023743e+01 1.880936100094950492e+00 2.021746878934385538e+00 -4.753522659579992649e+00 0.000000000000000000e+00 0.000000000000000000e+00 0.000000000000000000e+00 5.135269002473611916e-16 -5.509190267898323720e-16 0.000000000000000000e+00 5.666268415252789058e-16 4.631007718091494715e-16 0.000000000000000000e+00 -3.072564608580556262e-16 1.430949975588302205e-15 1.111024982451778211e-17 0.000000000000000000e+00 0.000000000000000000e+00 0.000000000000000000e+00 0.000000000000000000e+00 -5.635324234348841528e-16 1.759028907274388846e-15 0.000000000000000000e+00 -9.837530566798368010e-16 -4.680593030982339340e-16 -3.072564608580556262e-16 1.430949975588302205e-15 1.111024982451778211e-17 0.000000000000000000e+00 -1.267774811562425217e-15 1.908413122820759139e-15 0.000000000000000000e+00 -9.678022989950445024e-16 1.721528544537408471e-15 0.000000000000000000e+00 -8.803865911197372882e-16 -2.088099487815399846e-15 -3.072564608580556262e-16 1.430949975588302205e-15 1.111024982451778211e-17 0.000000000000000000e+00 0.000000000000000000e+00 0.000000000000000000e+00 0.000000000000000000e+00 -1.265299673629523319e-15 6.750621156374764090e-16 0.000000000000000000e+00 -1.081318719488612458e-15 1.589675067282164076e-15 -3.072564608580556262e-16 1.430949975588302205e-15 1.111024982451778211e-17 0.000000000000000000e+00 0.000000000000000000e+00 0.000000000000000000e+00 0.000000000000000000e+00 -5.237703226886123729e-16 3.170996820943195068e-15 0.000000000000000000e+00 8.599670348480327413e-16 -2.544422959982651959e-16 -1.845055675233667758e+00 4.756279028223066696e+00 1.257105996597675812e+01 -1.148084838321776324e+01 -1.007830697631458605e+01 1.696925771588805887e+01 -2.104056960370471785e+01 -2.549448757611557781e+01 -2.016973584251147145e+01 2.584914772123010351e+00 1.365722421930283481e+00 3.129459739926929718e+00 0.000000000000000000e+00 0.000000000000000000e+00 0.000000000000000000e+00 -3.829852774938733606e-16 1.094101105970804147e-15 0.000000000000000000e+00 6.842229097852314075e-16 -1.697527954181673729e-15 0.000000000000000000e+00 1.891698716376047831e-16 -1.425202181006575439e-15 -2.984996946774553105e-16 0.000000000000000000e+00 0.000000000000000000e+00 0.000000000000000000e+00 0.000000000000000000e+00 -3.769005018958089962e-16 -6.749265769545874165e-16 0.000000000000000000e+00 -5.564748324213090200e-16 9.041762143937042167e-18 1.891698716376047831e-16 -1.425202181006575439e-15 -2.984996946774553105e-16 0.000000000000000000e+00 2.094455814108540321e-15 -1.128472374463216974e-15 0.000000000000000000e+00 -8.463630087973690874e-16 1.201777722372516125e-15 0.000000000000000000e+00 9.403562504794468253e-16 -3.517938793705140288e-16 1.891698716376047831e-16 -1.425202181006575439e-15 -2.984996946774553105e-16 0.000000000000000000e+00 0.000000000000000000e+00 0.000000000000000000e+00 0.000000000000000000e+00 2.341771086814078234e-16 -7.006943938963215202e-16 0.000000000000000000e+00 5.099406491767410522e-17 8.791494471488933921e-16 1.891698716376047831e-16 -1.425202181006575439e-15 -2.984996946774553105e-16 0.000000000000000000e+00 0.000000000000000000e+00 0.000000000000000000e+00 0.000000000000000000e+00 -9.034019567564767942e-16 4.988810674794328560e-16 0.000000000000000000e+00 2.058297731531447331e-16 3.611196110219591067e-16
